<?xml version="1.0" encoding="utf-8"?>
<!-- Generator: Adobe Illustrator 23.0.3, SVG Export Plug-In . SVG Version: 6.00 Build 0)  -->
<svg version="1.1" id="Layer_1" xmlns="http://www.w3.org/2000/svg" xmlns:xlink="http://www.w3.org/1999/xlink" x="0px" y="0px"
	 viewBox="0 0 512 512" style="enable-background:new 0 0 512 512;" xml:space="preserve">
<style type="text/css">
	.st0{fill:#F34E57;}
	.st1{fill:#FFFFFF;}
</style>
<circle class="st0" cx="255.5" cy="255.5" r="255.5"/>
<path class="st1" d="M253.5,86.9c-67.4,0-131.5-6-155.9,56.8C87.5,169.6,89,203.2,89,251.5c0,42.3-1.4,82.1,8.6,107.8
	c24.4,62.8,89,56.8,155.9,56.8c64.6,0,131.2,6.7,155.9-56.8c10.1-26.2,8.6-59.4,8.6-107.8c0-64.3,3.5-105.8-27.6-137
	C358.8,82.9,316.1,86.9,253.5,86.9L253.5,86.9z M238.8,116.4c140.7-0.2,158.6-15.9,148.8,201.5c-3.5,76.9-62,68.4-134,68.4
	c-131.2,0-135-3.8-135-135C118.6,118.5,129,116.5,238.8,116.4L238.8,116.4z M341.4,143.7c-10.9,0-19.8,8.8-19.8,19.8
	c0,10.9,8.8,19.8,19.8,19.8c10.9,0,19.8-8.8,19.8-19.8C361.2,152.6,352.3,143.7,341.4,143.7z M253.5,166.8
	c-46.7,0-84.5,37.9-84.5,84.6s37.8,84.5,84.5,84.5s84.5-37.8,84.5-84.5S300.2,166.8,253.5,166.8L253.5,166.8z M253.5,196.5
	c72.6,0,72.7,109.8,0,109.8C181,306.3,180.9,196.5,253.5,196.5z"/>
</svg>
